<?xml version="1.0" encoding="utf-8"?>
<!-- Generator: Adobe Illustrator 17.1.0, SVG Export Plug-In . SVG Version: 6.00 Build 0)  -->
<!DOCTYPE svg PUBLIC "-//W3C//DTD SVG 1.1//EN" "http://www.w3.org/Graphics/SVG/1.1/DTD/svg11.dtd">
<svg version="1.1" id="Layer_1" xmlns="http://www.w3.org/2000/svg" xmlns:xlink="http://www.w3.org/1999/xlink" x="0px" y="0px"
	 viewBox="0 0 1500 400" enable-background="new 0 0 1500 400" xml:space="preserve">
<path d="M863.387,192.582l-0.278-5.001c-4.168-3.056-8.613-6.112-13.336-9.169c-1.667-0.834-3.334-1.945-5.001-2.778
	c-0.278-0.278-0.556-0.556-1.111-0.834l-0.833,17.782c-1.389,25.283,3.89,53.067,5.835,78.351h8.891
	C859.497,245.649,864.776,217.865,863.387,192.582z M848.661,86.725l-2.223,38.342c4.168,2.778,8.891,5.557,13.614,8.613
	l-2.223-46.955c0,0-2.223-1.111-4.445-1.111S848.661,86.725,848.661,86.725z M912.842,205.362c0-18.615-7.502-34.73-40.842-56.957
	c-24.172-16.115-46.955-25.839-46.955-42.232c0-21.949,17.782-30.84,33.341-30.84c22.505,0,35.841,11.669,35.841,18.893
	c0,0.834-0.556,1.111-1.389,0.556c-1.389-0.834-4.445-3.056-10.002-3.056c-8.891,0-14.448,7.78-14.448,13.892
	c0,8.613,5.279,15.559,15.837,15.559c10.836,0,17.504-8.335,17.504-20.56c0-13.614-12.503-32.507-44.454-32.507
	c-31.396,0-55.012,16.67-55.012,45.01c0,16.67,3.89,26.117,13.892,35.286c-9.724,8.057-22.783,25.283-22.783,44.454
	c0,18.615,7.502,32.229,40.842,54.179c1.945,1.389,4.168,2.778,6.112,4.168c0-1.667-3.056-28.062-3.612-39.731
	c-16.115-11.114-25.283-21.116-25.283-35.564c0-13.336,4.445-18.06,9.724-23.339c7.502,5.835,18.06,12.225,31.952,20.838
	c25.839,16.115,43.899,34.174,43.899,51.956c0,12.225-3.89,17.782-8.613,22.227c-5.279-5.001-11.947-10.28-20.56-16.115
	c-0.556,5.001-3.334,28.895-3.89,35.564c10.28,8.057,17.226,15.837,17.226,25.006c0,21.949-15.559,33.619-31.118,33.619
	c-22.783,0-41.398-17.226-41.398-24.45c0-0.834,0.556-1.111,1.389-0.556c1.389,0.834,4.445,3.056,10.002,3.056
	c8.891,0,14.448-7.78,14.448-13.892c0-8.613-5.279-15.559-15.837-15.559c-10.836,0-17.782,9.169-17.782,20.838
	c0,14.17,18.337,37.786,50.289,37.786c31.396,0,52.79-19.449,52.79-47.788c0-13.614-3.334-23.339-11.114-32.785
	C903.396,242.871,912.842,221.755,912.842,205.362z M850.884,316.776h1.111v-23.061c-1.945-0.556-2.778-2.223-2.778-3.89
	c0-2.501,1.945-4.168,4.168-4.168s4.168,1.667,4.168,4.168c0,1.667-1.111,3.334-3.056,3.89v23.061h1.111l9.724-30.007l-7.779-10.002
	h-8.613l-7.78,10.28L850.884,316.776z M263.808,270.655L263.808,270.655c-10.558,0-14.17-1.111-14.448-23.339v-55.29
	c0-27.506-12.781-47.233-35.841-47.233c-39.453,0-57.791,23.894-57.791,38.342c0,11.669,6.39,19.449,18.615,19.449
	c11.947,0,17.782-7.78,17.782-17.504c0-6.946-5.279-15.281-15.281-15.281c-4.445,0-7.224,1.945-9.169,2.778
	c-0.556,0.278-1.111,0.556-1.111-0.556c0-5.279,12.225-18.337,29.451-18.337c17.782,0,19.449,11.947,19.449,28.34v1.389
	c0,8.057-13.058,18.337-19.449,21.672c-23.339,12.225-46.955,16.67-46.955,39.731c0,21.116,18.615,31.118,41.676,31.118
	c17.782,0,25.561-17.504,25.561-17.504c3.89,13.336,17.504,16.393,31.952,16.393h15.559c0.834,0,1.111,0,1.111-0.556v-3.056
	C264.92,270.655,264.642,270.655,263.808,270.655z M215.464,243.982c0,9.169-8.335,24.172-20.004,24.172
	c-10.002,0-10.836-8.613-10.836-20.282c0-15.837-2.778-24.45,12.225-36.119c6.39-5.001,15.559-11.114,18.615-16.67V243.982z
	 M1405.175,270.655h-0.556c-10.558,0-14.17-1.111-14.17-20.56V116.731c0-0.556-0.278-0.834-0.834-0.834
	c-0.556,0-0.833,0.278-1.111,0.834c-2.223,4.168-9.447,11.669-16.67,15.281c-8.335,4.168-15.281,6.39-21.116,6.39
	c-0.556,0-0.833,0.278-0.833,0.834s0.278,0.834,0.833,1.111c2.778,0.834,5.557,4.168,5.557,8.057v101.134
	c0,25.283,6.39,25.283,32.785,25.283h16.115c0.833,0,1.111,0,1.111-0.556v-3.056
	C1406.286,270.655,1406.008,270.655,1405.175,270.655z M1349.329,270.655h-3.334c-10.558,0-14.17-1.111-14.448-23.339v-58.069
	c0-27.506-12.781-44.454-35.841-44.454c-36.675,0-59.18,20.282-59.18,36.675c0,3.89,0.556,6.668,1.111,8.335
	c0.833,2.223,0.278,2.778-1.945,1.667c-7.78-3.89-18.06-10.558-26.117-22.227c-9.724-13.892-27.228-24.45-45.01-24.45
	c-24.728,0-50.289,19.449-50.289,42.51c0,18.615,12.225,32.229,26.673,38.342c-8.335,4.445-24.45,16.393-24.45,30.007
	c0,11.114,4.723,20.004,23.616,20.004c26.951,0,36.953-34.452,55.568-34.452c2.223,0,2.223,0.834,0.833,1.667
	c-7.224,1.945-13.336,8.335-13.336,15.837c0,9.724,8.057,17.504,17.226,17.504c8.891,0,16.67-8.057,16.67-18.615
	c0-11.114-8.335-20.838-22.783-20.838c-30.562,0-58.624,14.17-59.458,2.501c-0.278-3.89,7.224-8.891,12.503-11.669
	c6.668,2.223,10.558,2.778,17.226,2.778c27.228,0,49.733-20.004,49.733-45.566c13.336,10.002,29.729,18.337,39.453,18.337
	c11.947,0,17.782-8.335,17.782-18.06c0-6.946-5.279-15.281-15.281-15.281c-4.445,0-7.224,1.945-9.169,2.778
	c-0.556,0.278-1.111,0.556-1.111-0.556c0-5.279,15.003-18.337,32.229-18.337c17.782,0,19.449,11.947,19.449,28.34v1.389
	c0,8.057-13.058,18.337-19.449,21.672c-23.339,12.225-46.955,16.67-46.955,39.731c0,21.116,18.615,31.118,41.676,31.118
	c17.782,0,25.561-17.504,25.561-17.504c3.89,13.336,17.504,16.393,31.952,16.393h18.893c0.833,0,1.111,0,1.111-0.556v-3.056
	C1350.44,270.655,1350.162,270.655,1349.329,270.655z M648.061,270.655h-0.556c-10.558,0-14.448-1.111-14.448-20.56l0.278-60.013
	c0.278-33.341-5.001-45.566-33.063-45.288c-23.339,0.278-41.676,17.504-42.232,18.06v-21.394c0-0.556-0.278-0.834-0.833-0.834
	s-0.834,0.278-1.111,0.834c-2.223,4.168-9.447,8.891-16.67,13.058c-8.057,4.723-15.837,5.835-21.394,5.835
	c-0.556,0-0.834,0.278-0.834,0.834s0.278,0.834,0.834,1.111c2.778,0.834,5.557,4.168,5.557,8.057v79.74
	c0,20.282-2.501,20.56-10.836,20.56h56.124c-8.335,0-10.836-0.278-10.836-20.56v-77.795c5.279-6.946,17.504-17.226,29.173-17.504
	c10.558-0.278,11.947,11.947,11.947,27.506v67.237c0,25.283,6.39,25.283,32.785,25.283h16.115c0.834,0,1.111,0,1.111-0.556v-3.056
	C649.172,270.655,648.894,270.655,648.061,270.655z M1164.287,225.922c-15.837,0-18.615-16.115-18.615-38.898
	s2.778-37.508,18.615-37.508c15.559,0,18.337,14.726,18.337,37.508S1179.847,225.922,1164.287,225.922z M1009.808,241.204
	c-5.557,9.447-28.062,31.118-28.062,11.669V100.061c0-0.556-0.278-0.834-0.834-0.834c-0.556,0-0.833,0.278-1.111,0.834
	c-2.223,4.168-9.447,11.669-16.67,15.281c-8.335,4.168-15.281,6.39-21.116,6.39c-0.556,0-0.833,0.278-0.833,0.834
	s0.278,0.834,0.833,1.111c2.778,0.834,5.557,4.168,5.557,8.057v106.691c0,25.283,11.947,36.953,30.007,36.953
	c15.003,0,31.674-24.45,35.563-29.729c3.612-5.557-2.223-5.557,15.003-21.949c11.947-8.335,24.45-15.281,35.841-18.337
	c15.837-4.445,36.953-9.724,37.23-31.952c0.278-13.336-10.28-28.618-33.896-28.618c-33.341,0-62.792,17.504-64.459,64.181
	c-1.389,39.453,22.783,66.959,56.957,66.959c26.395,0,38.898-22.783,42.787-35.008c3.334-11.114,0-21.394-11.114-25.006
	c-10.558-3.612-19.727,2.223-22.783,11.114c-2.778,7.78,1.667,17.504,10.558,20.282c5.835,1.945,9.447,0.556,11.391,0
	c0.833-0.278,1.389,0.278,1.111,1.389c-1.667,6.39-12.503,21.394-29.729,20.838c-18.337-0.556-21.116-35.841-20.282-63.347
	c1.111-24.728-0.556-54.734,17.782-53.901c9.169,0.278,10.002,11.947,8.891,23.061c-0.834,11.114-5.557,22.227-20.838,30.84
	C1023.7,219.81,1021.478,222.588,1009.808,241.204z M146.004,270.655h-0.556c-10.558,0-14.17-1.111-14.17-20.56V100.061
	c0-0.556-0.278-0.834-0.834-0.834c-0.556,0-0.834,0.278-1.111,0.834c-2.223,4.168-9.447,11.669-16.67,15.281
	c-8.335,4.168-15.281,6.39-21.116,6.39c-0.556,0-0.834,0.278-0.834,0.834s0.278,0.834,0.834,1.111
	c2.778,0.834,5.557,4.168,5.557,8.057v117.804c0,25.283,6.39,25.283,32.785,25.283h16.115c0.834,0,1.111,0,1.111-0.556v-3.056
	C147.115,270.655,146.838,270.655,146.004,270.655z M1297.651,243.982c0,9.169-8.335,24.172-20.005,24.172
	c-10.002,0-10.836-11.391-10.836-23.061c0-15.837-2.778-21.672,12.225-33.341c6.39-5.001,15.559-11.114,18.615-16.67V243.982z
	 M767.254,270.655L767.254,270.655c-10.558,0-14.17-1.111-14.448-23.339v-55.29c0-27.506-12.781-47.233-35.841-47.233
	c-39.453,0-57.791,23.894-57.791,38.342c0,11.669,6.39,19.449,18.615,19.449c11.947,0,17.782-7.78,17.782-17.504
	c0-6.946-5.279-15.281-15.281-15.281c-4.445,0-7.224,1.945-9.169,2.778c-0.556,0.278-1.111,0.556-1.111-0.556
	c0-5.279,12.225-18.337,29.451-18.337c17.782,0,19.449,11.947,19.449,28.34v1.389c0,8.057-13.058,18.337-19.449,21.672
	c-23.339,12.225-46.955,16.67-46.955,39.731c0,21.116,18.615,31.118,41.676,31.118c17.782,0,25.561-17.504,25.561-17.504
	c3.89,13.336,17.504,16.393,31.952,16.393h15.559c0.833,0,1.111,0,1.111-0.556v-3.056
	C768.366,270.655,768.088,270.655,767.254,270.655z M718.91,243.982c0,9.169-8.335,24.172-20.004,24.172
	c-10.002,0-10.836-8.613-10.836-20.282c0-15.837-2.778-24.45,12.225-36.119c6.39-5.001,15.559-11.114,18.615-16.67V243.982z
	 M571.933,270.655h-63.625c-10.558,0-14.17,1.667-14.448-20.56V141.459c0-0.556-0.278-0.834-0.834-0.834
	c-0.556,0-0.834,0.278-1.111,0.834c-2.223,4.168-9.447,8.891-16.67,12.503c-8.335,4.168-15.837,6.39-21.394,6.39
	c-0.556,0-0.834,0.278-0.834,0.834s0.278,0.834,0.834,1.111c2.778,0.834,5.557,4.168,5.557,8.057l0.556,73.628
	c0,9.169-13.892,24.172-28.34,24.172c-7.78,0-12.781-6.946-12.781-25.006V141.737c0-0.556-0.278-0.834-0.834-0.834
	c-0.556,0-0.834,0.278-1.111,0.834c-2.223,4.168-9.447,8.891-16.67,12.503c-8.335,4.168-15.559,6.39-21.394,6.39
	c-0.556,0-0.833,0.278-0.833,0.834s0.278,0.834,0.833,1.111c2.778,0.834,5.557,4.168,5.557,8.057l0.556,61.958
	c0.278,36.953,22.227,43.343,41.954,43.343c20.56,0,33.896-17.504,33.896-17.504c3.89,13.336,17.504,16.393,31.952,16.393h79.184
	c0.833,0,1.111,0,1.111-0.556v-3.056C573.044,270.655,572.766,270.655,571.933,270.655z M266.587,209.252
	c0-39.453,30.007-64.459,64.181-64.459c27.784,0,37.508,19.449,37.508,38.342c0,11.669-7.224,19.727-18.615,19.727
	c-11.947,0-17.782-8.057-17.782-17.782c0-6.946,6.112-15.837,16.115-15.837c6.39,0,9.724,2.501,11.391,3.612
	c0.834,0.556,1.389,0.278,1.389-0.834c0-8.057-8.613-21.949-28.895-21.949c-18.337,0-26.395,19.171-26.395,46.677
	c0,16.393-3.89,70.571,24.172,71.683c26.117,0,37.786-32.785,37.786-32.785l4.168,2.223c-0.834,4.445-12.781,38.064-42.787,38.064
	C295.482,275.934,266.587,255.929,266.587,209.252z"/>
</svg>
